<svg xmlns="http://www.w3.org/2000/svg" xmlns:xlink="http://www.w3.org/1999/xlink" version="1.1" x="0px" y="0px" fill="white" viewBox="0 0 128 128" enable-background="new 0 0 128 128" xml:space="preserve"><path d="M124.04,99.808c0.014-0.086-0.044-0.172-0.019-0.243c0.029-0.082-0.021-0.167-0.021-0.254V98.52  c0-0.127,0.033-0.253-0.029-0.364l-0.848-1.586c-0.142-0.256-0.406-0.408-0.694-0.384c-0.366,0.028-0.747-0.001-1.157-0.031  c-0.295-0.021-0.598-0.042-0.913-0.043c0.006-0.163,0.019-0.331,0.029-0.491c0.015-0.217,0.029-0.427,0.032-0.621  c0.008-0.877-0.037-1.754-0.082-2.603c-0.092-1.729-0.691-2.284-2.373-2.194c-7.122,0.377-8.177,0.213-8.316,0.176  c-0.03-0.008-0.063-0.015-0.102-0.02c-0.021-0.138-0.039-0.264-0.043-0.341l-0.033-0.656c-0.089-1.745-0.178-3.49-0.229-5.236  c-0.023-0.788,0.006-1.819,0.035-2.816c0.014-0.464,0.024-0.905,0.032-1.325c1.717-0.218,2.883-0.367,3.089-0.394  c0.785-0.133,1.603-0.226,2.393-0.315c2.024-0.229,4.118-0.467,6.159-1.434l0.17-0.101c0.212-0.125,0.349-0.346,0.366-0.591  c0.113-1.556-0.444-2.887-1.063-4.093c-0.526-1.026-1.441-1.462-2.514-1.192c-0.393,0.099-0.724,0.147-1.01,0.147  c-0.012,0-0.024,0.001-0.036,0c-0.087,0-0.309,0.026-0.604,0.066c-1.397-1.287-9.658-9.926-10.094-10.438  c-0.198-0.25-0.389-0.507-0.579-0.764c-0.158-0.213-0.315-0.426-0.478-0.636c-0.695-0.899-1.559-1.255-2.71-1.125  c-0.525,0.06-1.682,0.156-2.806,0.245c-0.065-0.6-0.069-1.264-0.071-1.913c-0.002-0.59-0.004-1.2-0.055-1.759  c-0.002-0.018-0.055-0.595-0.125-1.425c0-0.045,0.012-0.088,0.003-0.134c-0.003-0.016-0.014-0.028-0.018-0.044  c-0.124-1.496-0.289-3.685-0.319-5.037c0.688-0.108,1.199-0.193,1.353-0.228c0.546-0.123,1.093-0.239,1.64-0.356  c1.386-0.296,2.819-0.602,4.213-1l0.506-0.141c1.275-0.351,2.722-0.748,3.766-1.834c0.49-0.508,1.011-0.659,1.693-0.816  c0.513-0.119,1.017-0.279,1.561-0.454c0.721-0.231,1.184-0.587,1.413-1.087c0.322-0.701,0.078-1.451-0.133-1.953  c-0.282-0.671-0.729-1.204-1.371-1.631c-0.61-0.404-1.2-0.069-1.452,0.074c-0.052,0.03-0.102,0.063-0.152,0.081  c-1.172,0.379-12.679-0.636-14.584-1.081c-0.543-0.125-0.71-0.415-0.794-0.651c-0.322-0.915-0.655-1.826-0.988-2.737  c-0.407-1.113-0.813-2.227-1.201-3.346c-0.183-0.529-0.382-1.054-0.581-1.578c-0.458-1.207-0.892-2.349-1.134-3.556  c0.104-0.572,0.505-2.747,0.662-3.451c0.275-1.243-0.527-1.591-0.941-1.698c-0.441-0.112-1.358-0.347-1.965,0.486  c-0.533,0.736-0.811,1.702-1.004,2.509l-0.38,0.115c-0.035,0.011-0.068,0.024-0.102,0.039c-0.051,0.024-0.207,0.098-0.296,0.107  c-0.642,0.076-1.282,0.155-1.924,0.235c-1.643,0.205-3.342,0.416-5.009,0.542c-2.487,0.186-5.155,0.356-7.874,0.34  c-1.216-0.002-2.447,0.04-3.635,0.085c-1.549,0.059-3.15,0.121-4.718,0.06c-2.578-0.099-5.198-0.102-7.732-0.104  c-1.104-0.001-2.206-0.002-3.31-0.011l-0.146,0.002c-0.047,0.001-0.092,0.004-0.142,0c-1.541-0.145-3.086-0.256-4.63-0.368  c-2.47-0.178-5.022-0.362-7.509-0.688c-0.334-0.043-0.67-0.077-1.005-0.111c-0.898-0.089-1.747-0.174-2.553-0.455  c-0.454-0.159-1.3-0.455-1.392-0.768c-0.138-0.474-0.313-0.916-0.483-1.344c-0.136-0.342-0.272-0.684-0.384-1.035  c-0.177-0.561-0.471-0.948-0.873-1.151c-0.383-0.193-0.829-0.206-1.32-0.038c-1.039,0.355-1.552,1.317-1.275,2.396l0.071,0.29  c0.121,0.503,0.258,1.073,0.611,1.612c-0.213,0.531-0.269,1.075-0.318,1.562c-0.026,0.262-0.052,0.524-0.105,0.781  c-0.113,0.535-0.187,1.079-0.258,1.623c-0.106,0.797-0.206,1.551-0.437,2.264c-0.796,2.449-2.272,4.637-3.699,6.753l-0.12,0.178  c-1.396,0.743-13.872,3.73-16.868,4.381c-1.113,0.24-1.829,1.222-1.824,2.5c0.004,1.088,0.231,2.134,1.858,2.409  c0.625,0.106,1.257,0.192,1.887,0.268c0.011,0.001,0.022,0.002,0.034,0.004c0.442,0.433,0.96,0.745,1.577,0.949  c2.856,0.951,5.824,1.306,8.693,1.649c0.88,0.105,1.761,0.21,2.638,0.333l0.45,0.063c0.291,0.041,0.593,0.077,0.89,0.116  c-0.218,1.269-0.165,2.581,0.187,3.911c0.14,0.53,0.118,1.029,0.038,1.661c-0.079,0.623-0.083,1.238-0.088,1.833  c-0.004,0.612-0.028,1.191-0.11,1.756c-0.121,0.005-0.241,0.019-0.395,0.046c-2.641-0.541-3.734,1.43-4.518,2.846  C22.482,63,13.946,71.325,12.034,73.141c-0.087-0.043-0.182-0.073-0.268-0.119c-1.038-0.494-2.065-0.49-2.972,0.01  c-0.112,0.062-0.208,0.152-0.275,0.262c-0.226,0.364-0.476,0.751-0.726,1.139c-1.069,1.658-1.676,2.628-1.701,3.203l-0.086,0.529  c-0.014,0.081-0.013,0.164,0.001,0.244c0.229,1.365,2.65,1.794,7.737,2.388c0.91,0.106,1.752,0.204,2.407,0.306  c0.256,0.04,0.52,0.088,0.773,0.137C17.293,81.309,18,81.373,18,81.415v7.781c0,0.004-0.529,0.004-0.791,0.017  c-1.523,0.074-3.092-0.034-4.605-0.139c-0.646-0.044-1.293-0.089-1.938-0.121C9.98,88.917,9.29,88.957,8.86,89.467  c-0.426,0.506-0.343,1.201-0.206,1.814c0.039,0.167,0.09,0.396,0.072,0.527c-0.113,0.851-0.1,1.689-0.085,2.5  c0.007,0.427,0.015,0.854,0.004,1.251c-0.001,0.006-0.003,0.018-0.003,0.024c-2.45-0.043-3.777-0.062-4.114-0.021  c-0.381,0.046-0.665,0.372-0.66,0.754c0.004,0.311,0.101,7.625,0.177,8.592l0.055,1.008c0.021,0.387,0.333,0.694,0.72,0.709  c1.535,0.059,3.275,0.175,5.119,0.297c2.206,0.146,4.488,0.298,6.399,0.345c0.262,0.006,0.523,0.009,0.785,0.009  c1.729,0,3.466-0.13,5.152-0.257l0.217-0.016c0.676-0.051,1.346-0.056,1.975-0.057c0.966-0.001,1.932-0.026,2.897-0.05  c1.927-0.048,3.922-0.099,5.86,0.05c2.762,0.213,5.526,0.083,8.121-0.068c0.417-0.024,0.839-0.02,1.259-0.016  c0.857,0.009,1.754,0.017,2.665-0.197c0.527-0.123,0.944-0.267,1.284-0.445c0.392,0.348,0.879,0.643,1.377,0.694  c0.04,0.004,0.085,0.007,0.134,0.007c0.275,0,0.676-0.104,1.058-0.498c1.612,0.051,6.368,0.042,11.384,0.035  c5.994-0.012,13.45-0.023,14.198,0.086c0.55,0.08,1.21,0.113,1.88,0.113c0.631,0,1.266-0.03,1.832-0.076  c0.109,0.296,0.229,0.525,0.35,0.651c0.53,0.553,1.101,0.831,1.689,0.831c0.49,0,0.994-0.191,1.5-0.575l0.116-0.093  c0.008-0.006,0.015-0.012,0.021-0.018c1.497,0.237,2.969,0.115,4.396-0.001c0.611-0.05,1.222-0.101,1.832-0.122  c1.158-0.041,2.316-0.097,3.475-0.153c2.833-0.139,5.764-0.284,8.638-0.171c1.932,0.075,3.865,0.109,5.799,0.144l2.148,0.041  c0.979,0.021,1.959,0.005,2.938-0.011c1.6-0.025,3.252-0.052,4.856,0.093c0.874,0.08,1.731,0.032,2.562-0.014  c0.879-0.048,1.71-0.094,2.535,0c0.656,0.074,1.232-0.078,1.666-0.441c0.312-0.261,0.695-0.759,0.751-1.651  c0.079-1.247,0.014-2.194-0.055-3.198c-0.022-0.329-0.045-0.68-0.064-1.047C123.908,100.542,123.992,100.11,124.04,99.808z   M121.171,97.651c0.292,0.021,0.774,0.043,1.079,0.045l0.75,1.018v0.487c0,0.118-0.238,0.246-0.258,0.375  c0,0.003-0.093,0.006-0.094,0.01c-0.87-0.228-1.762-0.219-2.575-0.211c-0.466,0.005-0.927,0.009-1.417-0.033l-6.627-0.084  c-2.947-0.028-5.318,0.027-8.167,0.19c-0.988,0.057-1.98,0.099-2.97,0.141c-1.487,0.063-3.027,0.129-4.539,0.246  c-3.953,0.304-7.859,0.319-11.847,0.305c-0.282,0.003-0.65,0.006-1.04,0.013c-0.487,0.009-1.009,0.017-1.467,0.013  c0.016-0.635,0.021-1.368,0.018-2.144c2.064,0.017,4.262,0.096,6.401,0.175c2.557,0.095,5.196,0.189,7.638,0.183  c0.66-0.003,1.32-0.152,1.979-0.191C98.693,98.15,99.351,98,100.008,98c0.004,0,0.008,0,0.013,0c2.615,0,5.231,0.137,7.849,0.162  l3.07,0.083c0.016,0.003,0.058,0.026,0.094,0.025c0.038,0.004,0.078,0.02,0.115,0.02l6.097-0.169  c0.146-0.024,0.304-0.009,0.46-0.004c0.379,0.013,0.844,0.03,1.266-0.206C119.634,97.538,120.349,97.592,121.171,97.651z   M77.68,102.071c-2.02-0.126-4.308-0.27-6.267,0.019l-0.36,0.007c-0.859,0.016-2.871,0.054-3.98,0.145  c-1.538,0.128-12.761-0.006-14.356-0.084c-0.383-0.019-1.437-0.061-2.356-0.019c0.01-0.255,0.008-0.486-0.005-0.686  c0.107-0.138,0.188-0.279,0.241-0.398c0.036-0.081,0.063-0.256,0.084-0.507c1.213,0.04,3.567,0.055,6.615,0.055  c4.274,0,9.891-0.03,15.549-0.063c2.285-0.014,4.184-0.025,5.363-0.028c0.047,0.37,0.082,0.695,0.09,0.88  c-0.113,0.191-0.195,0.432-0.257,0.701L77.68,102.071z M23.073,89.142c-1.047,0.09-2.337,0.074-3.444,0.056  C19.502,89.195,20,89.195,19,89.193V81.66c1,0.135,2.082,0.288,2.529,0.318c0.508,0.034,1.705,0.272,2.436,0.448  c0.035,1.796-0.099,5.208-0.197,6.692C23.408,89.123,23.2,89.13,23.073,89.142z M25.587,82.569c0.975,0.025,2.8,0.13,4.487,0.25  c-0.121,1.461-0.102,3.111-0.077,4.605l0.016,1.057c0.001,0.055,0.006,0.329,0.027,0.658c-1.805-0.017-3.457-0.029-4.708-0.029  C25.438,87.538,25.608,84.421,25.587,82.569z M31.396,89.153c-0.018-0.234,0.045-0.484,0.042-0.691l0.021-1.063  c-0.024-1.462-0.024-3.077,0.092-4.466c1.088,0.088,1.799,0.173,2.022,0.228C33.685,83.188,34,83.203,34,83.207v5.977  C33,89.173,32.303,89.163,31.396,89.153z M36,83.18c0-0.012,0.764-0.028,1.342-0.049c1.135-0.042,2.279-0.097,2.954-0.082  c0.921-0.001,1.807-0.011,2.722-0.023c1.052-0.015,2.091-0.03,3.143-0.021l0.186,0.001c1.943,0.015,3.947,0.029,5.929-0.07  c0.069-0.003,0.185-0.008,0.318-0.013c-0.073,2.57-0.104,5.692-0.01,7.926c-0.897,0.01-1.598,0.019-2.083,0.027  c-0.058-1.295-0.104-2.19-0.106-2.219l-0.022-0.267c-0.05-0.673-0.153-2.072-1.762-2.24c-0.519-0.053-1.041-0.033-1.544,0.065  c-0.795,0.154-1.207,0.61-1.225,1.357c-0.005,0.226,0.014,0.788,0.048,1.569c-0.062-0.005-0.117-0.01-0.181-0.016  c-0.566-0.05-1.153-0.104-1.545-0.076c-2.465,0.168-4.92,0.181-6.998,0.168l-1.134-0.014c-0.045,0-0.031-0.001-0.031-0.001V83.18z   M102.355,80.856c0.062,0.891,0.068,2.12,0.028,2.717c-0.083,1.241,0.039,2.435,0.194,3.755c0.159,1.362,0.173,2.54,0.058,3.428  c-1.598,0.085-3.136,0.139-3.992,0.083l-0.058-1.066c-0.075-1.328-0.149-2.648-0.185-3.969l-0.024-1.068  c-0.022-1.077-0.049-2.359-0.111-3.378C99.625,81.192,101.009,81.022,102.355,80.856z M96.773,81.537  c0.057,0.971,0.082,2.197,0.104,3.23l0.024,1.078c0.036,1.336,0.111,2.67,0.187,4.013l0.049,0.882  c-0.755-0.005-1.96-0.012-3.331-0.009c0.089-0.8,0.132-1.572,0.078-2.312c-0.132-1.853-0.175-4.466-0.172-6.519  C94.679,81.786,95.709,81.665,96.773,81.537z M92.211,82.309c0,1.531,0.024,4.191,0.177,6.335c0.05,0.701,0.007,1.379-0.09,2.153  c-2.523,0.018-5.165,0.044-6.228,0.194c-0.649,0.091-1.693,0.045-2.708,0.016c-0.535-0.016-1.046-0.036-1.508-0.034  c-0.032-0.546-0.076-1.095-0.122-1.597l-0.01-0.107c-0.033-0.376-0.067-0.767-0.188-1.185c-0.279-0.968-0.63-1.761-2.053-1.592  c-1.326,0.153-1.928,0.904-1.793,2.157l0.007,1.98c-0.533,0.007-1.326,0.015-2.311,0.024c0.007-0.409,0.017-0.833,0.028-1.255  c0.012-0.418,0.023-0.823,0.029-1.179c0.029-1.733,0.032-3.686-0.095-5.45c0.226-0.009,0.457-0.002,0.681-0.024  c1.555-0.146,3.208-0.285,4.84-0.24c1.336,0.038,2.689,0.267,3.999,0.261C85.742,82.758,86.614,83,87.494,83  c0.006,0,0.012,0,0.018,0C88.014,83,89.806,82.581,92.211,82.309z M58.666,92.291c0.003,0,0.006,0.002,0.009,0.002  c0.004,0,0.007-0.002,0.01-0.002c2.511-0.021,5.239-0.044,7.757-0.064c5.02-0.041,9.482-0.076,11.26-0.1l0.004,1.106  c-3.373,0.174-7.394,0.332-10.233,0.398c-2.135,0.05-4.242,0.01-6.277-0.029c-1.516-0.029-3.034-0.06-4.599-0.053l-1.051,0.006  c-1.623,0.012-3.422,0.019-4.94-0.083c-0.014-0.375-0.028-0.744-0.042-1.099C51.931,92.352,55.061,92.322,58.666,92.291z   M70.427,96.123c-1.205-0.004-2.399-0.01-3.563,0.004c-1.831,0.021-3.687,0.107-5.479,0.191c-1.351,0.063-2.702,0.126-4.053,0.163  c-0.69,0.018-2.017-0.042-3.302-0.1c-1.679-0.075-2.689-0.112-3.338-0.104c-0.01-0.426-0.022-0.861-0.036-1.296  c1.54,0.094,3.304,0.087,4.901,0.076l1.044-0.006c1.556-0.008,3.061,0.024,4.564,0.053c1.366,0.026,2.764,0.053,4.183,0.053  c0.715,0,1.435-0.007,2.159-0.023c2.832-0.067,6.833-0.224,10.204-0.397l0.003,0.783c-0.022,0.126-0.031,0.285-0.03,0.474  C75.326,96.136,72.844,96.135,70.427,96.123z M50.721,97.773c0.769-0.005,2.154,0.058,3.241,0.106  c1.188,0.054,2.318,0.104,3.082,0.104c0.118,0,0.228-0.001,0.327-0.004c1.361-0.037,2.722-0.1,4.082-0.164  c1.781-0.083,3.622-0.169,5.428-0.189c1.159-0.013,2.345-0.008,3.54-0.004c2.45,0.011,4.972,0.013,7.387-0.136  c0.052,0.431,0.118,0.934,0.199,1.524c-1.191,0.004-3.01,0.015-5.173,0.028c-7.294,0.043-19.049,0.113-22.107,0.012  C50.729,98.661,50.727,98.231,50.721,97.773z M73.842,82.738c0.133,1.739,0.13,3.708,0.101,5.455  c-0.006,0.351-0.017,0.75-0.028,1.163c-0.013,0.442-0.022,0.884-0.03,1.311c-1.234,0.011-2.644,0.023-4.146,0.035  c-0.111-1.565-0.082-3.23-0.044-4.852c0.017-0.724,0.033-1.439,0.036-2.136c0.002-0.41-0.003-0.756-0.012-1.053  c1.399-0.022,2.899-0.034,3.325,0.018C73.324,82.712,73.576,82.718,73.842,82.738z M68.211,83c0.002,0,0.006,0,0.008,0  c0.009,0,0.012,0.462,0.011,0.862c-0.003,0.687-0.02,1.314-0.036,2.029c-0.037,1.625-0.066,3.255,0.042,4.86  c-0.596,0.005-1.198-0.01-1.807-0.005c-2.562,0.021-4.912,0.03-7.003,0.048c0-0.332-0.001-0.677-0.003-0.919l-0.079-7.091  c2.684-0.062,5.935,0.029,7.233,0.081C66.744,82.87,67.382,83,68.211,83z M57.844,82.818l0.079,7.069  c0.002,0.24,0.003,0.58,0.003,0.911c-1.448,0.013-2.737,0.024-3.843,0.036c-0.098-2.218-0.065-5.375,0.01-7.954  c0.473-0.011,0.907-0.017,1.125-0.011C55.449,82.873,56.481,82.85,57.844,82.818z M47.682,94.938  c-0.157-2.991-0.333-6.358-0.338-7.249c0.002,0,0.005-0.001,0.007-0.001c0.357-0.069,0.729-0.085,1.104-0.046  c0.284,0.029,0.36,0.038,0.421,0.858c0.008,0.109,0.016,0.217,0.026,0.318c0.039,0.359,0.095,1.46,0.148,2.845  c0,0.01-0.005,0.02-0.004,0.03c0.001,0.008,0.005,0.015,0.006,0.024c0.127,3.237,0.247,8.011,0.147,8.78  c-0.025,0.047-0.043,0.063-0.043,0.064c-0.004,0.001-0.034,0.008-0.115,0.002c-0.328-0.029-0.71-0.011-1.08,0.007  C47.921,99.535,47.82,97.6,47.682,94.938z M79.756,100.857c-0.044-0.434-0.121-1.012-0.236-1.851  c-0.094-0.68-0.227-1.647-0.298-2.349c0-0.005,0.003-0.01,0.002-0.016c-0.001-0.006-0.005-0.011-0.005-0.018  c-0.038-0.383-0.058-0.686-0.039-0.803c0.022-0.073-0.064-0.15-0.064-0.227L79,91.341c0-0.002,0-0.005,0-0.007  c0-0.001,0-0.003,0-0.004l0.086-2.763c-0.055-0.526,0.024-0.529,0.519-0.586c0.147-0.017,0.252-0.018,0.271-0.029  c0.034,0.061,0.106,0.206,0.204,0.548c0.082,0.278,0.113,0.566,0.143,0.898l0.013,0.11c0.082,0.881,0.167,1.9,0.167,2.796  c0.105,3.349,0.151,7.029,0.081,8.595c-0.141-0.019-0.281-0.037-0.44-0.044C79.963,100.851,79.855,100.855,79.756,100.857z   M118.044,91.701c0.116-0.006,0.213-0.008,0.295-0.008c0.296,0,0.387,0.035,0.385,0.026c0.024,0.036,0.086,0.182,0.116,0.758  c0.044,0.825,0.089,1.678,0.081,2.506c-0.002,0.165-0.015,0.347-0.028,0.535c-0.018,0.26-0.035,0.538-0.033,0.813  c-0.206,0.069-0.412,0.153-0.619,0.269c-0.072,0.033-0.333,0.023-0.485,0.019c-0.228-0.008-0.484-0.017-0.649,0.017l-5.929,0.165  c-0.093-0.01-0.167-0.005-0.219-0.001l-3.075-0.027c-2.621-0.025-5.242-0.049-7.861-0.051c-0.669-0.019-1.382,0.04-2.073,0.081  c-0.633,0.037-1.266,0.075-1.898,0.078c-2.382,0.007-5.032-0.087-7.574-0.182c-2.16-0.081-4.379-0.16-6.472-0.176  c-0.022-1.523-0.062-3.022-0.095-4.057c0.425-0.001,0.904,0.011,1.409,0.026c0.514,0.015,1.035,0.031,1.524,0.031  c0.535,0,1.032-0.019,1.437-0.076c2.05-0.288,10.883-0.207,11.574-0.2c0.847,0.177,2.78,0.13,5.254-0.011  c0.055,0.013,0.11,0.02,0.166,0.02c0.086,0,0.17-0.016,0.249-0.043c0.986-0.059,2.047-0.13,3.153-0.208  c0.861-0.06,1.735-0.121,2.218-0.152c0.011,0,0.02,0.005,0.03,0.005c0.049,0,0.1-0.006,0.15-0.017  c0.094-0.006,0.166-0.01,0.189-0.01C109.526,91.898,110.319,92.109,118.044,91.701z M107.741,84.172  c0.053,1.756,0.142,3.512,0.231,5.267l0.033,0.656c0.005,0.091,0.017,0.199,0.031,0.312c-0.382,0.024-0.856,0.057-1.465,0.099  c-0.686,0.047-1.53,0.105-2.414,0.161c0.115-1.187,0.027-2.508-0.09-3.514c-0.146-1.246-0.263-2.367-0.188-3.48  c0.046-0.668,0.04-2.006-0.035-3.002c1.426-0.177,2.772-0.346,3.961-0.496c-0.007,0.35-0.018,0.716-0.028,1.092  C107.747,82.286,107.717,83.34,107.741,84.172z M80.979,60c-0.084-1-0.146-2.033-0.095-3.063c0.196-0.01,0.392-0.009,0.601-0.021  c-0.019,0.618-0.003,1.329,0.018,2.056C81.513,59.303,81.523,60,81.527,60H80.979z M47.232,60.557  c-0.007-0.277-0.025-0.579-0.053-0.915c-0.018-0.214-0.033-0.406-0.036-0.545c-0.015-0.728,0.034-1.815,0.157-2.769  c2.14,0.095,3.957,0.179,4.97,0.232c0.027,1.577,0.038,3.119-0.012,4.051C50.267,60.601,48.441,60.575,47.232,60.557z M29.54,57.598  c0.004-0.576,0.008-1.12,0.076-1.654c0.015-0.119,0.026-0.242,0.038-0.365c0.301,0.02,0.602,0.037,0.902,0.061  c0.746,0.058,1.517,0.118,2.282,0.121c0.351,0.001,1.385,0.034,2.808,0.087c-0.082,1.278-0.098,2.935-0.041,4.274  c-1.555-0.117-2.926-0.217-3.44-0.238c-0.653-0.025-1.297-0.14-1.979-0.262c-0.244-0.043-0.495-0.083-0.745-0.124  C29.529,58.853,29.536,58.217,29.54,57.598z M37.111,60.236c-0.063-1.317-0.049-3.054,0.034-4.332  c0.224,0.009,0.451,0.018,0.685,0.027c-0.046,0.766-0.015,1.62,0.015,2.348c0.011,0.281,0.021,0.54,0.025,0.759  c0.003,0.167,0.021,0.391,0.042,0.636c0.015,0.167,0.033,0.402,0.045,0.626c-0.247-0.019-0.496-0.038-0.745-0.057  C37.179,60.241,37.145,60.239,37.111,60.236z M39.462,60.414c-0.007-0.287-0.03-0.585-0.055-0.867  c-0.018-0.207-0.034-0.396-0.037-0.536c-0.004-0.229-0.015-0.498-0.026-0.792c-0.027-0.669-0.062-1.524-0.018-2.229  c1.273,0.051,2.63,0.107,3.979,0.165c-0.088,1.333-0.109,3.075-0.055,4.427c-0.593-0.001-1.178-0.007-1.74-0.029  C41.225,60.542,40.438,60.486,39.462,60.414z M44.752,60.561c-0.055-1.309-0.034-3.052,0.053-4.341  c0.334,0.014,0.664,0.029,0.99,0.043c-0.121,0.998-0.166,2.09-0.151,2.864c0.003,0.162,0.021,0.386,0.041,0.636  c0.016,0.195,0.038,0.499,0.048,0.776C45.392,60.552,45.079,60.553,44.752,60.561z M53.717,54.02  c-0.026-1.152-0.051-2.25-0.052-2.947c0.369-0.004,0.741-0.005,1.104-0.012l0.303-0.006c0.463-0.011,0.924,0.014,1.386,0.036  c0.446,0.021,0.89,0.042,1.337,0.039c1.199-0.008,2.398,0,3.6,0.005c0.827,0.004,1.663,0.008,2.504,0.008  c1.786,0,3.596-0.019,5.389-0.094c0.382-0.017,0.766-0.022,1.149-0.028c0.643-0.009,1.307-0.018,1.971-0.081  c0.223-0.021,0.587-0.052,1.029-0.089c0.07,0.743,0.119,1.553,0.167,2.344c0.045,0.734,0.089,1.455,0.147,2.103  c0.072,0.776,0.077,1.582,0.082,2.457C73.837,58.509,73.858,59,73.91,60h-3.237c-1.774,0-3.608,0.078-5.461,0.254  c-0.753,0.071-1.537,0.107-2.295,0.131c-0.579,0.019-1.158,0.042-1.736,0.08c-1.832,0.119-4.675,0.152-7.425,0.148  C53.832,59.095,53.772,56.438,53.717,54.02z M75.413,60c-0.056-1-0.076-1.487-0.081-2.254c-0.001-0.236-0.006-0.465-0.009-0.704  c0.08-0.002,0.157,0.002,0.239,0c0.675-0.019,1.374-0.035,1.917,0.007c0.129,0.01,0.304,0.017,0.521,0.017  c0.35,0,0.821-0.036,1.377-0.058C79.336,58.032,79.396,59,79.475,60H75.413z M83.026,60c-0.002,0-0.011-0.611-0.023-1.065  c-0.02-0.698-0.042-1.506-0.018-2.104c0.554-0.033,1.13-0.062,1.743-0.099c1.438-0.087,2.803-0.167,3.632-0.202  c-0.034,1.152,0.062,2.392,0.157,3.521c-0.449,0.021-0.809,0.034-1.02,0.034c-0.404,0.001-0.843-0.037-1.265-0.051  C85.57,60.01,84.888,60,84.239,60H83.026z M90,59.975v-0.001c0-1.148-0.187-2.417-0.141-3.535c0.215-0.017,0.436-0.023,0.65-0.047  c-0.004,0.616,0.031,1.377,0.082,2.303c0.021,0.398,0.041,0.882,0.054,1.245C90.427,59.952,90,59.964,90,59.975z M92.15,59.851  c-0.011-0.313-0.031-0.713-0.06-1.237c-0.042-0.783-0.097-1.784-0.08-2.451c0.194-0.035,0.386-0.054,0.581-0.094  c1.174-0.242,2.485-0.456,3.753-0.663c0.532-0.086,1.054-0.173,1.566-0.261c0.036,0.41,0.061,0.671,0.062,0.683  c0.045,0.491,0.047,1.042,0.049,1.625c0.002,0.673,0.009,1.361,0.078,2.021c-0.588,0.043-1.047,0.076-1.21,0.085  c-0.454,0.026-1.202,0.072-2.087,0.127C94.004,59.736,93.076,59.794,92.15,59.851z M97.785,53.645  c-0.549,0.094-1.109,0.187-1.682,0.281c-1.283,0.209-2.61,0.426-3.815,0.674c-0.339,0.07-0.671,0.111-1.005,0.164  c-0.072,0.002-0.14,0.011-0.206,0.033c-0.785,0.115-1.568,0.201-2.362,0.223c-0.756,0.02-2.295,0.113-4.077,0.221  c-2.787,0.169-6.248,0.378-7.04,0.317c-0.619-0.049-1.36-0.029-2.077-0.009c-0.091,0.002-0.167,0.002-0.255,0.005  c-0.009-0.13-0.01-0.265-0.021-0.393c-0.058-0.633-0.101-1.337-0.145-2.056c-0.048-0.802-0.105-1.606-0.179-2.374  c1.624-0.128,3.484-0.266,4.142-0.288c1.685-0.055,3.371-0.084,5.057-0.113c1.399-0.023,2.798-0.047,4.195-0.086  c1.407-0.038,2.913-0.098,4.39-0.278c0.922-0.113,3.03-0.417,4.809-0.686C97.549,50.519,97.675,52.265,97.785,53.645z   M13.826,45.583c-0.009-0.001-0.017-0.002-0.025-0.003c-0.606-0.073-1.213-0.155-1.815-0.258c-0.525-0.089-0.606-0.102-0.609-0.935  c-0.001-0.268,0.059-0.903,0.642-1.029c0.169-0.037,16.939-3.743,17.727-4.909l0.188-0.278c1.485-2.202,3.021-4.479,3.883-7.129  c0.273-0.844,0.387-1.701,0.496-2.53c0.067-0.506,0.134-1.012,0.238-1.509c0.065-0.308,0.1-0.625,0.132-0.94  c0.047-0.466,0.092-0.906,0.263-1.256c0.152-0.308,0.242-0.782-0.179-1.272c-0.212-0.318-0.305-0.702-0.411-1.146l-0.077-0.313  c-0.082-0.321,0.009-0.501,0.307-0.603c0.096-0.033,0.148-0.036,0.156-0.042c0.018,0.02,0.067,0.089,0.123,0.264  c0.122,0.386,0.271,0.761,0.42,1.137c0.157,0.395,0.315,0.791,0.437,1.209c0.309,1.056,1.481,1.465,2.338,1.765  c0.974,0.34,1.952,0.438,2.898,0.532c0.319,0.032,0.64,0.064,0.958,0.105c2.53,0.332,5.105,0.517,7.596,0.697  c1.534,0.11,3.067,0.221,4.594,0.364c0.107,0.011,0.217,0.012,0.42,0.006c1.106,0.009,2.213,0.01,3.32,0.011  c2.52,0.003,5.125,0.006,7.677,0.104c1.625,0.062,3.256,0.001,4.831-0.06c1.172-0.044,2.396-0.092,3.569-0.084  c2.782,0.004,5.477-0.156,7.995-0.344c1.704-0.129,3.421-0.343,5.082-0.55c0.638-0.079,1.275-0.159,1.911-0.233  c0.269-0.031,0.508-0.124,0.711-0.217l0.744-0.226c0.258-0.078,0.453-0.289,0.514-0.551c0.17-0.745,0.402-1.765,0.819-2.375  c0.046-0.008,0.142,0.01,0.253,0.036c-0.193,0.881-0.67,3.491-0.69,3.604c-0.016,0.09-0.016,0.183,0.001,0.273  c0.261,1.388,0.755,2.688,1.232,3.946c0.194,0.51,0.388,1.02,0.565,1.535c0.391,1.128,0.801,2.25,1.21,3.371  c0.331,0.906,0.662,1.812,0.983,2.723c0.299,0.842,0.946,1.399,1.869,1.612c1.353,0.315,13.613,1.617,15.383,1.047  c0.171-0.056,0.316-0.138,0.433-0.204c0.012-0.006,0.023-0.013,0.035-0.02c0.311,0.237,0.52,0.506,0.665,0.854  c0.226,0.536,0.167,0.714,0.153,0.745c-0.032,0.069-0.183,0.181-0.551,0.299c-0.463,0.148-0.927,0.298-1.397,0.407  c-0.532,0.123-1.054,0.281-1.562,0.57c-1.005-0.485-1.997-0.506-2.96-0.526c-0.228-0.004-0.458-0.009-0.69-0.021  c-3.627-0.179-7.722-0.388-11.646-1.348c-0.088-0.693-0.387-1.395-0.662-2.034c-0.125-0.291-0.244-0.562-0.318-0.796  c-0.473-1.48-1.006-2.96-1.521-4.393c-0.481-1.338-0.979-2.722-1.422-4.091c-0.177-0.545-0.49-1.309-1.178-1.646  c-0.698-0.343-1.464-0.117-2.173,0.141c-0.469,0.142-4.138,0.779-4.978,0.836C82.7,29.904,82.67,30,82.639,30  c-0.007,0-0.019,0-0.024,0c-0.541,0-3.509-0.028-7.968,0.126c-3.096,0.107-6.603,0.216-6.954,0.189  C67.29,30.253,64.701,30,60.512,30c0,0-0.001,0-0.002,0h-0.002c-2.729,0-6.129-0.44-10.068-0.56C48.276,29.374,46.093,29,44.136,29  c0,0-0.003,0-0.004,0h-0.003C42.686,29,41,29.13,40,29.092l0,0v0.109c-1-0.058-2.686-0.049-2.891-0.074  c-0.6-0.07-0.992,0.089-1.345,0.306c-0.032,0.02-0.03,0.049-0.059,0.073c-0.411,0.289-0.63,0.706-0.702,1.045  c-0.635,2.796-1.495,4.248-2.194,5.411c-0.109,0.181-0.196,0.351-0.296,0.522c-0.012,0.016-0.017,0.035-0.027,0.052  c-0.23,0.405-0.439,0.803-0.579,1.229c-0.479,0.506-2.769,2.66-3.663,3.502c-0.707,0.664-0.706,0.664-0.76,0.732  c-0.513,0.68-1.21,0.775-2.304,0.874c-0.242,0.022-0.484,0.044-0.724,0.076c-0.84,0.112-1.617,0.377-2.369,0.634  c-0.36,0.123-0.722,0.247-1.088,0.351c-1.2,0.344-2.424,0.493-3.72,0.651c-0.522,0.064-1.044,0.127-1.564,0.205l-0.142,0.02  C15.052,44.884,14.347,44.983,13.826,45.583z M32.396,39.398c-0.004,0.077-0.008,0.154-0.012,0.221l-0.021,0.424  c-0.02,0.516-0.014,1.097-0.008,1.701c0.01,0.958,0.015,1.936-0.071,2.786c-0.562-0.062-1.13-0.162-1.727-0.275  c-0.356-0.067-0.713-0.134-1.07-0.192c-0.409-0.066-0.994-0.263-1.458-0.502c0.21-0.16,0.411-0.345,0.589-0.582  c0.046-0.045,0.295-0.28,0.654-0.617C30.879,40.85,31.825,39.955,32.396,39.398z M33.855,41.729  c-0.006-0.579-0.012-1.136,0.006-1.63l0.021-0.396c0.04-0.704,0.094-1.807,0.011-2.596c0.072-0.124,0.132-0.233,0.212-0.368  c0.423-0.704,0.938-1.571,1.43-2.78c0,0.066,0.001,0.132-0.001,0.162c-0.091,1.61-0.012,3.223,0.064,4.782  c0.048,0.978,0.096,1.956,0.103,2.935c0.004,0.62-0.041,1.71-0.077,2.602l-0.009,0.219c-0.63-0.011-1.271-0.025-1.828-0.042  C33.874,43.704,33.864,42.704,33.855,41.729z M37.096,38.83c-0.074-1.521-0.151-3.093-0.064-4.625  c0.009-0.168-0.001-0.671-0.025-1.776c-0.012-0.543-0.028-1.263-0.034-1.75c0.038,0.001,0.059-0.013,0.101-0.007  c0.208,0.025,1.021,0.062,2.373,0.11c-0.108,2.242-0.088,4.76,0.06,6.615c0.096,1.186,0.086,3.415,0.077,5.382  c-0.003,0.714-0.006,1.377-0.003,1.945c-0.462-0.009-0.923-0.016-1.385-0.026l-0.459-0.006c-0.169-0.002-0.385-0.005-0.621-0.008  l0.007-0.182c0.038-0.916,0.083-2.037,0.079-2.673C37.193,40.828,37.145,39.829,37.096,38.83z M41.079,44.751  c-0.003-0.569-0.001-1.243,0.003-1.967c0.009-1.997,0.019-4.26-0.081-5.508c-0.144-1.803-0.163-4.258-0.057-6.444  c0.716,0.024,1.532,0.05,2.427,0.079c-0.001,1.503,0.049,3.152,0.1,4.765c0.069,2.198,0.142,4.472,0.083,6.402  c-0.008,0.293,0.004,1.532,0.013,2.469l0.002,0.25C42.738,44.782,41.909,44.767,41.079,44.751z M45.068,44.825l-0.002-0.293  c-0.009-0.917-0.021-2.128-0.013-2.412c0.06-1.974-0.014-4.271-0.084-6.492c-0.05-1.584-0.099-3.203-0.099-4.67  c0.962,0.03,2.007,0.062,3.125,0.096c0.017,0.42,0.003,0.952-0.011,1.389c-0.016,0.494-0.028,0.947-0.008,1.241  c0.159,2.323,0.159,4.699,0.158,6.997l0.002,1.595c0.003,0.797-0.013,1.898-0.046,2.588c-0.322,0.004-0.558,0.008-0.644,0.004  C46.655,44.857,45.862,44.839,45.068,44.825z M49.638,42.271l-0.002-1.589c0.001-2.323,0.001-4.726-0.162-7.1  c-0.018-0.258-0.003-0.657,0.011-1.091c0.015-0.477,0.027-0.957,0.015-1.391c0.297,0.009,0.589,0.018,0.895,0.027  c0.485,0.015,0.979,0.03,1.478,0.045c-0.048,1.328,0.048,3.744,0.185,6.833c0.061,1.371,0.114,2.575,0.123,3.243  c0.01,0.736,0.031,1.309,0.059,2.058l0.016,0.328c0.012,0.235,0.039,0.785,0.03,1.207c-0.692-0.012-1.728-0.005-2.69,0.005  C49.641,43.848,49.639,42.478,49.638,42.271z M53.751,43.557l-0.015-0.325c-0.027-0.718-0.048-1.281-0.058-2.003  c-0.009-0.678-0.062-1.899-0.124-3.29c-0.098-2.198-0.235-5.327-0.189-6.722c0.781,0.024,1.564,0.048,2.344,0.072l0.027,1.875  c0.029,1.822,0.061,3.781,0.065,5.319l0.008,1.267c0.013,1.595,0.026,3.245-0.088,4.853l-0.011,0.114  c-0.006,0.054-0.007,0.094-0.012,0.145c-0.63,0.055-1.266,0.059-1.92,0.036C53.79,44.533,53.779,44.098,53.751,43.557z   M57.31,39.739l-0.008-1.259c-0.005-1.544-0.036-3.511-0.065-5.338l-0.026-1.806c0.852,0.027,1.683,0.053,2.485,0.079  c-0.072,2.488,0.08,5.713,0.426,8.827c0.146,1.33,0.193,3.149,0.171,4.521c-0.934,0.062-2.258,0.055-3.083,0.042l0.009-0.098  C57.337,43.043,57.323,41.363,57.31,39.739z M61.611,40.077c-0.337-3.048-0.486-6.195-0.417-8.612  c1.045,0.035,2.003,0.067,2.848,0.098c0.037,2.786,0.276,10.435,0.442,13.151c-0.453,0.041-0.795,0.072-0.91,0.072  c-0.309-0.002-0.627-0.033-0.942-0.062c-0.278-0.025-0.56-0.05-0.839-0.061C61.812,43.285,61.768,41.484,61.611,40.077z   M65.979,44.585c-0.159-2.633-0.396-10.176-0.437-12.965c1.061,0.043,1.754,0.079,1.918,0.103c0.064,0.01,0.199,0.016,0.42,0.016  c-0.042,1.571,0.082,3.176,0.213,4.738l0.081,0.989c0.04,0.5,0.089,1,0.137,1.501c0.097,0.997,0.196,2.028,0.221,3.029  c0.003,0.125,0,0.536-0.004,1.023c-0.004,0.565-0.008,1.052-0.008,1.437C67.814,44.454,66.877,44.514,65.979,44.585z M70.021,44.497  c0-0.458,0.005-1.042,0.008-1.466c0.004-0.509,0.007-0.937,0.004-1.069c-0.026-1.057-0.128-2.116-0.228-3.139  c-0.048-0.493-0.095-0.984-0.134-1.475l-0.082-0.996c-0.13-1.543-0.253-3.127-0.207-4.641c0.615-0.017,1.409-0.042,2.425-0.076  c0.057,1.288,0.08,3.355,0.097,4.95c0.011,1.007,0.02,1.816,0.034,2.111c0.034,0.692,0.011,1.542-0.014,2.441  c-0.031,1.143-0.06,2.311,0.02,3.337C71.202,44.489,70.538,44.498,70.021,44.497z M73.448,44.438  c-0.081-0.963-0.056-2.122-0.024-3.26c0.025-0.929,0.049-1.806,0.012-2.555c-0.014-0.286-0.021-1.073-0.032-2.054  c-0.017-1.595-0.04-3.657-0.099-4.985c0.437-0.015,0.895-0.031,1.395-0.048c0.151-0.005,0.306-0.011,0.46-0.016  c-0.043,1.191,0.031,2.471,0.104,3.404l0.05,0.653c0.209,2.728,0.464,6.056,0.703,8.782C75.219,44.387,74.329,44.415,73.448,44.438z   M77.518,44.306c-0.241-2.731-0.499-6.092-0.709-8.843l-0.05-0.654c-0.072-0.925-0.145-2.2-0.095-3.34  c0.6-0.02,1.197-0.04,1.771-0.059c0.046,0.622,0.094,1.345,0.114,1.815c0.087,2.023,0.332,4.05,0.569,6.01  c0.087,0.716,0.173,1.432,0.252,2.145c0.031,0.293,0.129,1.881,0.165,2.789l-0.879,0.084C78.573,44.262,78.141,44.281,77.518,44.306  z M81.028,44.018c-0.042-1.063-0.149-2.635-0.167-2.798c-0.079-0.722-0.167-1.443-0.254-2.164c-0.233-1.932-0.476-3.929-0.561-5.895  c-0.02-0.467-0.065-1.173-0.111-1.796c0.923-0.027,1.686-0.045,2.147-0.05c0.356,2.134,1.002,9.866,1.085,12.4  C82.468,43.847,81.748,43.938,81.028,44.018z M84.651,43.466c-0.119-2.6-0.641-9.542-1.069-12.225  c0.397-0.045,0.861-0.107,1.342-0.177c0.112,0.709,0.268,1.698,0.444,2.824c0.862,5.502,1.303,8.25,1.53,9.513  c-0.278,0.033-0.484,0.052-0.569,0.052C85.745,43.374,85.19,43.4,84.651,43.466z M88.383,43.192  c-0.307-1.715-1.055-6.488-1.533-9.537c-0.176-1.124-0.331-2.111-0.443-2.821c0.485-0.081,0.918-0.158,1.245-0.222  c0.442,2.6,1.701,9.811,2.207,12.324C89.346,43.033,88.842,43.12,88.383,43.192z M91.323,42.63  c-0.447-2.258-1.723-9.469-2.21-12.362c0.037,0.002,0.084-0.003,0.107,0.008c0.046,0.022,0.211,0.144,0.41,0.761  c0.451,1.393,0.953,2.788,1.438,4.138c0.51,1.419,1.038,2.887,1.503,4.341c0.087,0.274,0.223,0.593,0.369,0.933  c0.211,0.489,0.46,1.066,0.541,1.538C92.931,42.218,92.161,42.436,91.323,42.63z M26.771,48.518  c-0.888-0.124-1.777-0.23-2.666-0.336c-2.796-0.334-5.687-0.68-8.398-1.583c-0.169-0.056-0.323-0.122-0.466-0.2  c0.132-0.041,0.305-0.069,0.543-0.103l0.151-0.021c0.508-0.075,1.018-0.137,1.527-0.199c1.296-0.158,2.637-0.322,3.949-0.698  c0.391-0.111,0.776-0.243,1.162-0.374c0.714-0.244,1.389-0.474,2.081-0.566c0.219-0.029,0.44-0.049,0.661-0.069  c0.345-0.031,0.717-0.069,1.092-0.138c0.825,0.815,2.304,1.227,2.841,1.313c0.344,0.056,0.688,0.121,1.031,0.186  c0.687,0.129,1.396,0.263,2.11,0.325c0.815,0.071,3.274,0.11,5.326,0.137l0.447,0.006c0.718,0.015,1.436-0.095,2.153-0.081  c0.008,0,0.014-0.117,0.021-0.117c0.005,0,0.011,0,0.016,0s0.009,0.118,0.014,0.118c1.308,0.026,2.615,0.11,3.923,0.133  c0.012,0,0.023,0.037,0.036,0.037c0.011,0,0.02,0.009,0.03,0.009c1.022,0.019,2.046,0.049,3.068,0.065  c0.126,0.001,0.545-0.177,1.107-0.185C48.607,46.176,48.694,46,48.775,46c0,0,0.001,0,0.002,0c0,0,0.001,0,0.002,0  c1.286,0,3.205,0.138,3.925,0.176c0.069,0.003,0.142,0.092,0.211,0.096c0.005,0,0.009,0.047,0.014,0.047s0.009,0.02,0.013,0.02  c0.536,0.026,1.076,0.065,1.625,0.065c0.63,0,1.268-0.025,1.908-0.12c0.495,0.014,3.409,0.088,4.661-0.102  c0.381-0.059,0.856-0.011,1.357,0.035c0.358,0.033,0.721,0.066,1.071,0.069c0.113,0.025,0.581-0.107,1.179-0.161  C64.927,46.108,65.132,46,65.346,46c0.006,0,0.012,0,0.018,0h0.003c1.253,0,2.89-0.158,3.607-0.094  C69.051,45.913,69.154,46,69.278,46c0.001,0,0.002,0,0.003,0c0,0,0.003,0,0.004,0c1.917,0,8.985-0.192,9.521-0.247l0.877,0.112  C79.882,45.847,80.087,46,80.287,46c0.002,0,0.004,0,0.006,0c0.004,0,0.006-0.202,0.01-0.202c1.042-0.101,2.102-0.312,3.147-0.51  l0.229-0.094c0.847-0.161,1.644-0.339,2.449-0.23c0.598,0.082,5.967-0.699,8.113-1.695c4.183,1.076,8.501,1.283,12.312,1.471  c0.247,0.012,0.491,0.014,0.733,0.019c0.562,0.012,1.076,0.032,1.566,0.133c-0.709,0.475-1.598,0.729-2.533,0.986l-0.521,0.145  c-1.345,0.384-2.753,0.684-4.114,0.975c-0.552,0.118-1.104,0.236-1.655,0.36c-0.41,0.092-5.71,0.896-7.51,1.118  c-1.414,0.173-2.877,0.231-4.248,0.269c-1.393,0.039-2.786,0.062-4.18,0.086c-1.693,0.029-3.388,0.058-5.081,0.113  c-1.196,0.04-5.771,0.412-6.746,0.503c-0.604,0.057-1.211,0.065-1.853,0.074c-0.398,0.005-0.797,0.011-1.193,0.028  c-2.599,0.111-5.255,0.098-7.819,0.085c-0.842-0.004-1.683-0.008-2.523-0.008c-0.364,0-0.729,0-1.093,0.002  c-0.421-0.001-0.839-0.018-1.258-0.037c-0.495-0.023-0.99-0.046-1.484-0.037l-0.304,0.006c-1.23,0.024-2.392,0.047-3.592-0.049  c-2.125-0.171-4.282-0.188-6.369-0.204c-0.742-0.006-1.484-0.011-2.226-0.024c-0.812-0.013-1.625-0.01-2.439-0.008  c-1.645,0.006-3.353,0.011-5-0.129c-1.325-0.113-2.785-0.185-4.462-0.22c-1.157-0.024-2.26-0.18-3.427-0.345L26.771,48.518z   M30.62,50.427c1.645,0.034,3.073,0.104,4.366,0.214c1.712,0.147,3.453,0.14,5.132,0.135c0.803-0.003,1.606-0.006,2.409,0.008  c0.746,0.012,1.493,0.018,2.239,0.024c2.061,0.016,4.19,0.033,6.261,0.199c0.383,0.031,0.759,0.033,1.138,0.044  c0,0.703,0.024,1.758,0.053,3.002c0.008,0.322,0.015,0.658,0.022,1.002c-3.87-0.2-17.888-0.792-19.397-0.796  c-0.708-0.002-1.418-0.058-2.17-0.116c-0.354-0.028-0.709-0.05-1.063-0.071c-0.021-0.12-0.037-0.239-0.069-0.362  c-0.306-1.154-0.347-2.285-0.146-3.371C29.8,50.376,30.203,50.418,30.62,50.427z M24.312,62.993  c0.879-1.587,1.453-2.469,2.992-2.118c0.204,0.046,0.385,0.013,0.543-0.016c0.044-0.008,0.09-0.019,0.117-0.021  c0.644,0.025,1.282,0.139,1.959,0.26c0.701,0.125,1.427,0.255,2.183,0.284c0.661,0.027,2.863,0.195,4.993,0.357  c1.973,0.15,3.837,0.292,4.354,0.313c0.775,0.03,1.583,0.036,2.414,0.029c0.059,0.015,0.116,0.034,0.179,0.034  c0.02,0,0.04-0.001,0.061-0.002c0.051-0.004,0.094-0.027,0.141-0.04c0.516-0.008,1.025-0.036,1.57-0.058  C45.873,62.007,46.092,62,46.431,62H46v0.022c0,0.001,0.315-0.044,0.373-0.043C47.625,61.999,50.292,62,52.938,62  c0.002,0,0.004,0,0.006,0h0.002c3.016,0,6.283,0.043,8.333-0.089c0.562-0.037,1.124-0.026,1.687-0.044  c0.781-0.025,1.589,0.192,2.389,0.117c1.8-0.171,3.591,0.017,5.31,0.017h4.054l0,0c0,0,0.001,0,0.002,0h5.562  c0.002,0,0.003,0,0.005,0c0.007,0,0.014,0,0.021,0h1.927c0.001,0,0.002,0,0.003,0h0.003h2.042c0.622,0,1.244-0.239,1.9-0.216  c0.44,0.015,0.88-0.078,1.322-0.084c0.323-0.001,0.933-0.083,1.696-0.122c0.044,0.008,0.085-0.003,0.131-0.003  c0.02,0,0.039-0.015,0.06-0.017c0.05-0.004,0.093-0.033,0.14-0.047c1.568-0.083,3.665-0.217,5.367-0.324  c0.882-0.055,1.627-0.103,2.079-0.128c0.572-0.033,4.443-0.32,5.593-0.451c0.629-0.072,0.978,0.066,1.353,0.552  c0.156,0.202,0.309,0.406,0.46,0.611c0.2,0.27,0.399,0.54,0.607,0.802c0.068,0.086,6.4,6.913,9.45,9.787  c-0.831,0.135-1.73,0.286-2.479,0.414c-0.906-0.829-4.222-4.082-5.024-4.99c-0.311-0.355-2.082-2.227-2.091-2.227  c-0.356-0.492-0.781-0.909-1.191-1.312l-0.198-0.196c-1.201-1.188-7.237-0.86-10.728-0.56c-0.407,0.035-50.052,0.657-63.281-0.243  c-0.003,0-0.005-0.245-0.008-0.245c0,0-0.004,0-0.006,0c-1.101,0-1.949,0.081-2.494-0.02c-0.011-0.002-0.021,0.123-0.03,0.122  c-0.031-0.005-0.062,0.06-0.094,0.059c-0.067-0.002-0.133,0.032-0.197,0.047c-0.017,0.004-0.031,0.026-0.048,0.031  c-0.081,0.025-0.153,0.07-0.22,0.121c-0.006,0.004-0.012,0.008-0.017,0.012c-0.006,0.004-0.009,0.013-0.014,0.018  c-0.053,0.045-0.097,0.097-0.135,0.157c-0.02,0.029-0.035,0.058-0.05,0.088c-0.01,0.02-0.025,0.035-0.032,0.056  c-0.43,0.927-7.019,8.626-8.269,9.995c-0.104,0.114-0.119,0.117-0.185,0.127c-0.379,0.061-0.75,0.104-1.113,0.13  c-0.033,0-0.066,0.002-0.1,0.007c-1.015,0.063-1.954-0.029-2.835-0.245C16.295,71.107,23.911,63.719,24.312,62.993z M53.892,75.389  c-0.293-2.771-0.303-7.108-0.202-9.973c0.609-0.001,1.258-0.002,1.871-0.003l0.044,0.316c0.166,2.131,0.256,5.05,0.47,6.874  C56.162,73.348,56,74.396,56,75.32c0,0.031,0,0.056,0,0.087C55,75.402,54.495,75.396,53.892,75.389z M41.78,75  c-0.723,0-1.393,0.143-1.963,0.145c-0.098-1.432-0.133-5.13-0.155-7.53c-0.009-0.906-0.017-1.679-0.025-2.316  c0.75,0.012,1.52,0.04,2.308,0.048c0.071,2.202,0.023,6.209-0.004,8.549C41.934,74.448,41.93,75,41.927,75  C41.878,75,41.83,75,41.78,75z M30.498,75.12c-0.05-0.008-0.153-0.018-0.65-0.051c0.006-0.041,0.011-0.084,0.016-0.118  c0.028-0.211,0.055-0.406,0.062-0.541c0.068-1.149,0.056-2.304,0.044-3.42c-0.009-0.866-0.019-1.732,0.01-2.596  c0.034-1.019,0.087-2.254,0.138-3.359c0.574,0.034,1.201,0.065,1.871,0.094c-0.095,1.84-0.073,4.547-0.063,5.801  c0.01,1.283-0.108,2.843-0.213,4.218l-0.005,0.061C31.162,75.188,30.729,75.159,30.498,75.12z M22.555,74.596  c-1.419-0.097-2.661-0.188-3.301-0.25c0.633-0.722,2.096-2.405,3.617-4.203c-0.035,0.422-0.073,0.847-0.111,1.269  C22.647,72.632,22.55,73.724,22.555,74.596z M24.054,74.696c-0.015-0.806,0.089-1.948,0.199-3.148  c0.104-1.123,0.202-2.271,0.229-3.33c0.551-0.666,1.07-1.305,1.52-1.874c-0.017,0.114-0.032,0.22-0.045,0.306  c-0.067,0.445-0.119,0.813-0.124,0.992c-0.025,0.853-0.003,1.741,0.021,2.681c0.039,1.525,0.065,3.084-0.115,4.483  C25.188,74.77,24.619,74.733,24.054,74.696z M27.354,70.285c-0.024-0.919-0.046-1.787-0.021-2.6  c0.004-0.148,0.053-0.448,0.107-0.812c0.13-0.869,0.21-1.521,0.229-2.032c0.285,0.032,0.606,0.062,0.952,0.09  c-0.051,1.12-0.105,2.377-0.142,3.414c-0.028,0.887-0.019,1.774-0.01,2.662c0.012,1.091,0.023,2.219-0.042,3.316  c-0.006,0.106-0.028,0.26-0.051,0.426c-0.012,0.084-0.017,0.146-0.026,0.224c-0.181-0.011-0.356-0.022-0.569-0.036  c-0.174-0.011-0.355-0.022-0.542-0.035C27.421,73.419,27.394,71.833,27.354,70.285z M33.486,65.188  c0.561,0.02,1.149,0.037,1.758,0.054c0.007,0.873-0.004,1.977-0.016,3.137c-0.022,2.19-0.045,4.455,0.037,5.802  c0.011,0.169,0.005,0.342,0,0.515c-0.005,0.184-0.006,0.379,0.002,0.58c-0.674-0.004-1.387-0.011-2.06-0.023  c0.106-1.402,0.227-2.99,0.217-4.332C33.414,69.673,33.393,66.97,33.486,65.188z M36.769,75c-0.012,0-0.009-0.208-0.004-0.404  c0.007-0.217,0.012-0.364-0.001-0.578c-0.08-1.294-0.057-3.598-0.035-5.661c0.011-1.142,0.021-2.219,0.017-3.097  c0.452,0.01,0.918,0.028,1.391,0.038c0.01,0.639,0.018,1.326,0.026,2.252C38.201,71.799,38.243,74,38.319,75  c-0.03,0-0.069,0-0.093,0h-1.067C37.037,75,36.906,75,36.769,75z M43.44,74.058c0.029-2.485,0.075-6.441,0.007-8.678  c0.652,0.006,1.315,0.011,1.988,0.016c-0.133,3.04,0.091,6.875,0.347,9.397c0.01,0.096,0.013,0.272,0.018,0.462v0  c-0.704,0.002-1.503,0.005-2.373,0.009C43.43,74.942,43.435,74.538,43.44,74.058z M47,75.253c0-0.012,0-0.024,0-0.036  c0-0.239,0.137-0.459,0.125-0.578c-0.252-2.486-0.399-6.272-0.264-9.235c0.743,0.004,1.531,0.007,2.292,0.009  c-0.106,2.563-0.162,6.902,0.112,9.865l-0.581-0.011C48.527,75.257,48,75.253,47,75.253z M50.792,75.108  C50.503,72.213,50.583,68,50.691,65c0.521,0,1.045,0,1.571,0c-0.098,3-0.017,7.217,0.267,10.047L50.792,75.108z M57.824,72.427  c-0.211-1.793-0.488-4.696-0.654-6.815l-0.041-0.204c0.748-0.002,1.483-0.005,2.232-0.009c0.185,2.268,0.621,7.896,0.69,10.026  C59.378,75.423,59,75.42,58,75.416c0-0.027,0-0.049,0-0.077C58,74.369,57.923,73.27,57.824,72.427z M61.441,75.215  c-0.066-2.182-0.405-7.597-0.59-9.93c0.826-0.004,1.651,0.044,2.473,0.038c0.02,0.164,0.037,0.355,0.058,0.519  c0.147,1.227,0.3,2.508,0.312,3.749c0.005,0.508,0.052,1.022,0.099,1.53c0.025,0.27,0.051,0.544,0.069,0.815  c0.03,0.457,0.006,1.296-0.018,2.105c-0.015,0.502-0.026,0.766-0.029,1.185C63.217,75.217,62.734,75,62.477,75  c-0.005,0-0.009,0-0.014,0C62.245,75,61.883,75.215,61.441,75.215z M65.315,75.459c0.003-0.41,0.016-0.892,0.029-1.374  c0.025-0.884,0.049-1.718,0.014-2.246c-0.019-0.284-0.045-0.568-0.071-0.852c-0.044-0.466-0.088-0.933-0.093-1.399  c-0.014-1.323-0.172-2.632-0.323-3.898c-0.014-0.108-0.025-0.217-0.038-0.325c0.843-0.006,1.68-0.013,2.511-0.021  c0.162,1.598,0.358,3.963,0.374,5.413c0.005,0.508,0.052,1.016,0.099,1.523c0.025,0.27,0.051,0.541,0.069,0.812  c0.036,0.546,0.069,1.186,0.102,1.813c0.011,0.198,0.021,0.392,0.03,0.584C67.108,75.481,66.137,75.47,65.315,75.459z   M69.521,75.497c-0.012-0.218-0.023-0.442-0.035-0.669c-0.033-0.635-0.066-1.283-0.104-1.835c-0.019-0.284-0.045-0.568-0.071-0.852  c-0.044-0.466-0.088-0.933-0.093-1.399c-0.016-1.458-0.206-3.783-0.369-5.411c0.989-0.009,1.967-0.019,2.929-0.029  c0.053,1.177,0.145,3.053,0.237,4.929c0.096,1.942,0.201,4.075,0.249,5.139c-0.861,0.014-1.201,0.056-1.369,0.105  C70.697,75.491,70.187,75.497,69.521,75.497z M73.763,75.37c-0.032-0.764-0.104-2.253-0.25-5.214  c-0.091-1.847-0.183-3.695-0.235-4.871c1.082-0.012,2.139-0.025,3.168-0.038c0.021,1.042,0.086,2.436,0.242,3.264  c0.081,0.435,0.1,0.899,0.12,1.391c0.011,0.274,0.021,0.549,0.046,0.852c0.124,1.542,0.242,3.127,0.216,4.69  C75.671,75.403,74.596,75.38,73.763,75.37z M78.347,70.605c-0.021-0.253-0.03-0.508-0.041-0.763  c-0.021-0.523-0.043-1.064-0.144-1.607c-0.132-0.694-0.195-1.99-0.217-3.006c0.998-0.013,1.962-0.026,2.891-0.04  c-0.071,1.08-0.053,2.428,0.01,3.155c0.098,1.173,0.19,2.347,0.284,3.521l0.249,3.091c0.018,0.214,0.051,0.427,0.08,0.64  c-1.064-0.04-2.032-0.075-2.891-0.104C78.598,73.851,78.477,72.215,78.347,70.605z M82.975,76c-0.039-1-0.078-0.718-0.102-0.984  l-0.248-3.178c-0.094-1.176-0.187-2.397-0.285-3.574c-0.065-0.775-0.07-2.121,0-3.074c1.037-0.015,2.016-0.042,2.93-0.056  c0.015,0.751,0.023,1.881,0.033,2.923C85.327,70.689,85.357,74,85.487,76c-0.357,0-0.728,0-1.084,0C83.854,76,83.343,76,82.975,76z   M86.99,76c-0.133-2-0.163-5.297-0.188-7.961c-0.01-1.045-0.02-2.092-0.033-2.848c1.131-0.019,2.131-0.083,2.977-0.098  c0.025,1.229,0.185,2.557,0.334,3.781c0.062,0.506,0.122,0.984,0.169,1.439c0.044,0.423,0.062,1.397,0.08,2.345  c0.022,1.204,0.043,2.311,0.089,2.957C88.93,75.738,87.85,76,87.495,76C87.45,76,87.259,76,86.99,76z M91.912,75.299  c-0.046-0.704-0.067-1.839-0.083-2.674c-0.021-1.068-0.037-1.991-0.088-2.478c-0.048-0.464-0.109-0.962-0.172-1.478  c-0.146-1.188-0.299-2.497-0.323-3.649c0.996-0.02,1.568-0.033,1.61-0.037c0.539-0.046,1.072-0.086,1.596-0.12  c-0.044,2.08,0.156,4.377,0.401,6.589c0.066,0.6,0.073,1.208,0.08,1.852c0.003,0.333,0.007,0.667,0.02,1.001  c0.006,0.149,0.02,0.43,0.037,0.713C93.9,75.121,92.858,75.216,91.912,75.299z M96.483,74.875c-0.015-0.25-0.026-0.495-0.032-0.627  c-0.011-0.319-0.015-0.64-0.018-0.96c-0.007-0.653-0.014-1.328-0.09-2.002c-0.244-2.202-0.443-4.485-0.39-6.505  c1.097-0.049,2.119-0.069,3.015-0.06c0.053,0.717,0.111,1.454,0.173,2.214c0.189,2.323,0.384,4.725,0.404,6.82  c0.001,0.125-0.01,0.267-0.02,0.416c-0.009,0.128-0.014,0.266-0.019,0.402C98.504,74.676,97.485,74.778,96.483,74.875z   M101.015,74.414c0.003-0.047,0.005-0.094,0.008-0.141c0.014-0.19,0.025-0.373,0.023-0.533c-0.021-2.148-0.218-4.578-0.409-6.927  c-0.057-0.701-0.11-1.38-0.16-2.044c1.01,0.061,1.705,0.176,1.922,0.345l0.204,0.201c0.384,0.376,0.746,0.732,1.092,1.199  c0,0,0.236,0.25,0.549,0.58c0.021,0.333,0.053,0.859,0.09,1.482c0.134,2.252,0.262,4.336,0.349,5.42  C103.583,74.131,102.334,74.272,101.015,74.414z M106.171,73.805c-0.09-1.148-0.226-3.387-0.321-4.989  c0.328,0.342,2.655,2.75,4.251,4.26l-1.207,0.195c-0.11,0.018-0.154,0.024-0.246,0.087  C108.383,73.472,107.471,73.628,106.171,73.805z M16.381,79.62c-0.67-0.104-1.531-0.205-2.462-0.313  c-1.84-0.215-5.574-0.651-6.386-1.195l0.048-0.304c0.057-0.367,0.909-1.688,1.474-2.562c0.213-0.331,0.427-0.662,0.625-0.979  c0.434-0.182,0.904-0.147,1.407,0.091c0.223,0.121,0.461,0.21,0.693,0.311c0.06,0.037,0.118,0.064,0.184,0.083  c1.333,0.544,2.814,0.791,4.449,0.702c0.307,0.095,0.872,0.182,2.108,0.319l0.205,0.023c0.936,0.126,5.764,0.434,8.959,0.637  c1.405,0.089,2.449,0.289,2.562,0.3C30.633,76.798,31.395,77,32.344,77c0.001,0,0.002,0,0.003,0c0.019,0,0.037,0,0.056,0  c0.002,0,0.004,0,0.006,0c1.357,0,3.093,0.02,4.749,0.022L38.213,77c0.139,0,0.428,0,0.822,0c0.05,0,0.1-0.085,0.151-0.085  c0.042,0,0.083-0.071,0.124-0.078c0.656-0.002,1.522,0.076,2.477,0.071C42.058,76.907,42.344,77,42.637,77c0.014,0,0.024,0,0.037,0  c0.019,0,0.037-0.113,0.057-0.114c0.007,0,0.012-0.061,0.019-0.062c1.218-0.005,2.569-0.039,3.69-0.041  c0.051,0.011,0.1,0.013,0.153,0.013c0.045,0,0.09-0.011,0.136-0.02c0.014-0.002,0.023-0.015,0.037-0.018  c1.052-0.001,1.845-0.001,2.016,0.009l4.133,0.165C53.002,76.935,53.166,77,53.365,77c0,0,0.002,0,0.004,0c0.003,0,0.006,0,0.009,0  C54.12,77,56,76.961,57,76.969v-0.03v-0.015c2,0.011,4.628,0.01,5.372,0.01c0.03,0,0.06-0.005,0.097-0.003  c0.367,0,1.184,0.009,2.168,0.022c1.876,0.026,3.21,0.04,4.172,0.044l0,0l0,0c1.977,0.01,2.369,0.047,2.548-0.021  C71.524,76.949,71.972,77,73.029,77c0.002,0,0.005,0,0.008,0c0,0,0.001,0,0.002,0c1.445,0,4.033-0.067,8.661,0.109L82.386,77  c0,0,2.396,0,3.914,0h0.001c0,0,0.003,0,0.004,0c0.639,0,1.124,0,1.202,0c0.049,0,1.524-0.048,3.687-0.229  c0.021,0.002,0.042,0.042,0.063,0.042c0.068,0,0.139,0.007,0.208-0.013c0.003-0.001,0.006,0.004,0.009,0.003  c1.265-0.106,2.741-0.23,4.298-0.373c0.006,0,0.01,0.005,0.016,0.005c0.025,0,0.05,0,0.075-0.003  c0.013-0.001,0.022-0.008,0.034-0.01c5.452-0.5,11.81-1.17,13.29-1.679l2.66-0.43c0.014-0.002,0.027-0.004,0.041-0.007  c1.875-0.321,4.65-0.778,4.962-0.794c0.391-0.011,0.891-0.058,1.424-0.191c0.327-0.083,0.578-0.041,0.814,0.421  c0.459,0.895,0.878,1.858,0.91,2.89c-1.684,0.735-3.48,0.939-5.377,1.154c-0.811,0.092-1.648,0.187-2.444,0.322  c-2.186,0.28-5.606,0.713-9.215,1.161c-0.025,0.002-0.049-0.006-0.074-0.002c-0.016,0.002-0.026,0-0.042,0.004  C96.007,80.119,88.533,81,87.522,81c-0.005,0-0.01,0-0.015,0c-0.884,0-1.766,0.009-2.649,0.014  c-1.296,0.007-2.638,0.021-3.948-0.016c-1.711-0.046-3.421,0.099-5.022,0.25c-0.83,0.078-1.678,0.06-2.662-0.061  c-0.644-0.081-2.751-0.046-5.043-0.001c-0.784,0.016-1.389,0.028-1.547,0.022c-1.467-0.058-5.248,0.025-8.059,0.092h-0.001h-0.001  c-0.229,0.006-0.456,0.011-0.671,0.016c-1.372,0.033-2.416,0.062-2.651,0.052c-0.595-0.015-2.573,0.046-3.055,0.069  c-1.941,0.096-3.927,0.082-5.849,0.068l-0.19-0.001c-1.062-0.008-2.125,0.007-3.188,0.021c-0.908,0.012-1.817,0.024-2.723,0.023  c-0.708,0.001-1.906,0.041-3.064,0.083c-0.681,0.025-1.499,0.055-2.13,0.071c-0.004,0-0.006-0.002-0.009-0.002  c-0.004,0-0.007,0.002-0.011,0.002c-0.474,0.012-0.842,0.016-0.947,0.001c-0.719-0.176-6.889-0.63-8.88-0.63  c-0.122,0-0.228,0.001-0.316,0.005c-0.482-0.122-2.189-0.542-3.021-0.598c-0.613-0.041-2.696-0.388-3.498-0.526  c-0.394-0.041-0.783-0.116-1.175-0.19C16.927,79.714,16.654,79.662,16.381,79.62z M10.589,90.45  c0.636,0.031,1.271,0.075,1.907,0.119c1.557,0.106,3.166,0.218,4.777,0.141c0.848-0.041,1.726-0.027,2.573-0.013  c1.097,0.017,2.233,0.036,3.356-0.062c0.142-0.012,0.508-0.02,1.008-0.023c0.059,0.027,0.115,0.058,0.183,0.069  c0.042,0.007,0.083,0.01,0.124,0.01c0.115,0,0.222-0.034,0.32-0.083c1.465-0.002,3.662,0.014,5.791,0.035  c0.081,0.03,0.168,0.048,0.258,0.048c0.054,0,0.107-0.005,0.162-0.018c0.021-0.005,0.037-0.019,0.059-0.026  c1.938,0.02,3.755,0.042,4.803,0.055l1.247,0.014c2.104,0.011,4.594,0,7.107-0.172c0.278-0.016,0.825,0.03,1.311,0.074  c0.134,0.012,0.257,0.021,0.384,0.032c0.062,1.269,0.143,2.796,0.225,4.365c0.011,0.218,0.022,0.439,0.034,0.66  c-0.992,0.059-2.19-0.046-3.271-0.141c-0.64-0.056-1.252-0.109-1.791-0.129c-0.869-0.032-1.744-0.002-2.591,0.027  c-0.557,0.019-1.113,0.039-1.669,0.04c-2.057,0.006-4.113,0.005-6.17,0.004c-2.058-0.001-4.117-0.002-6.174,0.004l-1.024-0.002  c-1.275-0.006-2.588-0.01-3.89,0.112c-1.54,0.145-5.918,0.081-9.494,0.019c0.012-0.442,0.005-0.885-0.003-1.328  c-0.013-0.791-0.025-1.537,0.072-2.273c0.055-0.398-0.032-0.781-0.096-1.058c-0.057-0.253-0.072-0.404-0.075-0.489  C10.131,90.447,10.301,90.436,10.589,90.45z M9.107,97.092c0.062,0.018,0.123,0.04,0.189,0.04c0.016,0,0.031,0,0.047-0.001  c0.045-0.003,0.084-0.022,0.127-0.032c3.895,0.07,8.59,0.148,10.308-0.014c1.228-0.115,2.504-0.112,3.742-0.105l1.035,0.002  c2.059-0.005,4.114-0.005,6.17-0.004c2.055,0,4.114,0.001,6.174-0.004c0.572-0.001,1.145-0.021,1.717-0.041  c0.818-0.029,1.664-0.058,2.483-0.027c0.517,0.019,1.103,0.071,1.716,0.125c1.131,0.099,2.376,0.208,3.48,0.144  c0.018,0.343,0.034,0.674,0.051,0.997c-3.593,0.16-18.067,0.43-27.934,0.614C12.249,98.9,7.381,98.991,6.71,99.023  c-0.403,0.019-0.847,0.053-1.301,0.107c-0.012-0.739-0.022-1.458-0.031-2.092C6.214,97.04,7.676,97.066,9.107,97.092z   M44.928,105.205c-0.736,0.172-1.498,0.165-2.31,0.158c-0.454-0.004-0.907-0.008-1.36,0.019c-2.541,0.148-5.246,0.276-7.918,0.07  c-2.016-0.156-4.047-0.104-6.014-0.054c-0.954,0.024-1.907,0.048-2.861,0.05c-0.628,0.001-1.358,0.006-2.084,0.061l-0.218,0.017  c-1.906,0.142-3.879,0.291-5.788,0.243c-1.88-0.046-4.146-0.196-6.338-0.342c-1.587-0.105-3.099-0.206-4.477-0.27l-0.019-0.346  c-0.033-0.419-0.073-2.213-0.107-4.17c0.457-0.063,0.922-0.098,1.347-0.118c0.65-0.031,5.509-0.122,11.66-0.237  c10.408-0.194,24.31-0.453,27.979-0.616c0.041,0.868,0.066,1.494,0.061,1.641c-0.013,0.322-0.051,0.651-0.089,0.983  c-0.049,0.43-0.1,0.874-0.105,1.331C46.27,104.809,46.181,104.913,44.928,105.205z M47.558,105.116  c0.146-0.391,0.22-0.864,0.229-1.473c0.005-0.395,0.051-0.79,0.096-1.181c0.015-0.13,0.029-0.26,0.043-0.389  c0.03-0.001,0.062-0.003,0.093-0.004c0.303-0.014,0.61-0.03,0.861-0.013c-0.042,0.916-0.282,2.372-0.576,3.038  c-0.096,0.082-0.16,0.192-0.204,0.314c-0.005,0.004-0.011,0.012-0.016,0.015C47.961,105.41,47.752,105.285,47.558,105.116z   M74.92,105.062c-0.797-0.117-6.222-0.117-14.417-0.102c-4.396,0.007-8.59,0.015-10.606-0.017c0.125-0.407,0.226-0.85,0.301-1.292  c0.71-0.048,1.697-0.031,2.444,0.006c1.048,0.051,6.942,0.139,10.959,0.139c1.716,0,3.089-0.016,3.595-0.058  c1.062-0.088,3.04-0.125,3.885-0.14c0.284-0.005,0.46-0.013,0.483-0.017c1.869-0.271,3.981-0.14,6.023-0.013l0.326,0.02  c0.01,0.506,0.061,1.028,0.14,1.519C77.001,105.18,75.771,105.186,74.92,105.062z M79.88,106.233  c-0.042-0.065-0.082-0.165-0.121-0.286c0.021-0.086,0.032-0.176,0.021-0.269c-0.018-0.146-0.087-0.267-0.174-0.372  c-0.132-0.714-0.217-1.655-0.197-2.327c0.003-0.019,0.014-0.035,0.015-0.054c0.001-0.021-0.008-0.039-0.009-0.06  c0.011-0.204,0.032-0.378,0.066-0.504c0.048-0.001,0.094-0.001,0.141-0.003c0.128-0.004,0.252-0.009,0.35-0.006  c0.858,0.041,0.858,0.041,0.875,0.94l0.005,0.321c0.012,0.874,0.033,1.773,0.198,2.679C80.539,106.679,80.293,106.659,79.88,106.233  z M122.192,104.997c-0.019,0.282-0.096,0.493-0.218,0.596c-0.14,0.118-0.368,0.121-0.532,0.101c-0.954-0.11-1.886-0.058-2.788-0.008  c-0.814,0.045-1.583,0.087-2.346,0.018c-1.684-0.152-3.379-0.125-5.015-0.099c-0.961,0.015-1.923,0.03-2.883,0.011l-2.153-0.04  c-1.923-0.034-3.846-0.068-5.768-0.143c-2.94-0.112-5.903,0.032-8.769,0.171c-1.151,0.056-2.302,0.113-3.454,0.153  c-0.634,0.022-1.268,0.074-1.902,0.126c-1.336,0.11-2.601,0.203-3.861,0.03c-0.124-0.746-0.142-1.513-0.152-2.319l-0.005-0.327  c-0.013-0.708-0.14-1.225-0.396-1.603c0.097,0.001,0.189,0.003,0.29,0.003c0.409,0,0.846-0.008,1.253-0.016  c0.376-0.007,0.716-0.014,1.007-0.012c4.013,0.013,7.958-0.001,11.966-0.31c1.487-0.114,3.012-0.179,4.486-0.242  c0.997-0.042,1.994-0.085,2.989-0.142c2.812-0.16,5.146-0.212,8.059-0.188l6.557,0.081c0.506,0.045,1.003,0.041,1.484,0.036  c0.712-0.007,1.387-0.005,2.034,0.146c0.019,0.34,0.039,0.667,0.061,0.976C122.205,102.99,122.265,103.848,122.192,104.997z"/><path d="M56.627,58.335c1.313,0.238,2.878,0.48,4.525,0.48c0.307,0,0.615-0.008,0.925-0.026c1.128-0.064,2.276-0.053,3.419-0.042  l1.276,0.01c1.162,0.008,2.325,0.016,3.485,0c0.875-0.012,1.372-0.379,1.636-0.686c0.43-0.5,0.586-1.207,0.464-2.1  c-0.248-1.828-0.802-2.334-2.706-2.461c-0.741-0.035-7.257-0.343-7.802-0.343h-0.001c-0.272,0.006-0.545,0.007-0.817,0.007  l-1.121-0.003c-1.122,0-2.066,0.029-3.035,0.173c-1.276,0.189-1.472,1.198-1.556,1.631c-0.103,0.536-0.119,1.068-0.135,1.582  l-0.01,0.288C55.162,57.214,55.278,58.094,56.627,58.335z M56.684,56.604c0.015-0.477,0.028-0.927,0.108-1.345  c0.077-0.397,0.081-0.398,0.303-0.431c0.878-0.13,1.76-0.156,2.815-0.156l1.121,0.003c0.282,0,0.565-0.001,0.848-0.007  c0.359,0,4.803,0.204,7.688,0.34c1.156,0.077,1.156,0.077,1.305,1.167c0.059,0.431,0.018,0.766-0.114,0.919  c-0.091,0.105-0.266,0.161-0.521,0.164c-1.15,0.017-2.303,0.008-3.453,0l-1.272-0.01c-1.178-0.012-2.357-0.023-3.52,0.044  c-1.825,0.106-3.622-0.166-5.099-0.433c-0.105-0.019-0.173-0.037-0.215-0.051L56.684,56.604z"/></svg>
